# xmcd CD database file
#
# Track frame offsets:
#	150
#	15105
#	31721
#	46736
#	64741
#	78665
#	109704
#	129000
#	148635
#	166356
#	176457
#	192147
#	208503
#	227229
#
# Disc length: 3033 seconds
#
# Revision: 0
# Processed by: cddbd v1.5.2PL0 Copyright (c) Steve Scherf et al.
# Submitted via: CDex 1.70beta2
#
DISCID=a60bd70e
DTITLE=le swing society - album 1
DYEAR=2009
DGENRE=Jazz
TTITLE0=come back to me, baby
TTITLE1=no reason
TTITLE2=be careul
TTITLE3=i'm gonna move to the outskirts of ton
TTITLE4=it's later than you think
TTITLE5=i believe in music
TTITLE6=gee baby, ain't i good to you
TTITLE7=don't get around much anymore
TTITLE8=air mail special
TTITLE9=i'll die happy
TTITLE10=rm blues
TTITLE11=porter's love song to a chambermaid
TTITLE12=the duke and the brute
TTITLE13=bonus
EXTD=YEAR: 2009
EXTT0=
EXTT1=
EXTT2=
EXTT3=
EXTT4=
EXTT5=
EXTT6=
EXTT7=
EXTT8=
EXTT9=
EXTT10=
EXTT11=
EXTT12=
EXTT13=
PLAYORDER=
